<?xml version="1.0" encoding="utf-8"?>
<!-- Generator: Adobe Illustrator 16.0.0, SVG Export Plug-In . SVG Version: 6.00 Build 0)  -->
<!DOCTYPE svg PUBLIC "-//W3C//DTD SVG 1.1//EN" "http://www.w3.org/Graphics/SVG/1.1/DTD/svg11.dtd">
<svg version="1.1" id="Layer_1" xmlns="http://www.w3.org/2000/svg" xmlns:xlink="http://www.w3.org/1999/xlink" x="0px" y="0px"
	 width="50px" height="35.408px" viewBox="0 0 50 35.408" enable-background="new 0 0 50 35.408" xml:space="preserve">
<g transform="translate(537.021 73.644)">
	<g>
		<path fill="#FFFFFF" d="M-494.201-52.14c-2.57,2.931-5.561,5.46-8.891,7.49c-5.979,3.52-11.95,3.5-17.91-0.07
			c-3.89-2.42-7.34-5.489-10.2-9.08c-0.55-0.659-1.05-1.359-1.65-2.13c0.56-0.74,1.07-1.44,1.61-2.1c3.18-4.07,7.15-7.45,11.68-9.92
			c2.94-1.58,6.3-2.21,9.62-1.79c2.45,0.38,4.8,1.24,6.9,2.55c3.939,2.44,7.42,5.54,10.3,9.17c0.46,0.56,0.899,1.15,1.35,1.73
			c0.08,0.15,0.16,0.31,0.23,0.47C-492.181-54.58-493.151-53.32-494.201-52.14z"/>
	</g>
	<path fill="#FFFFFF" d="M-491.161-55.82c-1.021,1.24-1.99,2.5-3.04,3.68c-2.57,2.931-5.561,5.46-8.891,7.49
		c-5.979,3.52-11.95,3.5-17.91-0.07c-3.89-2.42-7.34-5.489-10.2-9.08c-0.55-0.659-1.05-1.359-1.65-2.13
		c0.56-0.74,1.07-1.44,1.61-2.1c3.18-4.07,7.15-7.45,11.68-9.92c2.94-1.58,6.3-2.21,9.62-1.79c2.45,0.38,4.8,1.24,6.9,2.55
		c3.939,2.44,7.42,5.54,10.3,9.17c0.46,0.56,0.899,1.15,1.35,1.73C-491.311-56.14-491.231-55.98-491.161-55.82z"/>
</g>
</svg>
