<?xml version="1.0" encoding="utf-8"?>
<!-- Generator: Adobe Illustrator 16.0.0, SVG Export Plug-In . SVG Version: 6.00 Build 0)  -->
<!DOCTYPE svg PUBLIC "-//W3C//DTD SVG 1.1//EN" "http://www.w3.org/Graphics/SVG/1.1/DTD/svg11.dtd">
<svg version="1.1" id="Layer_1" xmlns="http://www.w3.org/2000/svg" xmlns:xlink="http://www.w3.org/1999/xlink" x="0px" y="0px"
	 width="50px" height="35.408px" viewBox="0 0 50 35.408" enable-background="new 0 0 50 35.408" xml:space="preserve">
<g transform="translate(537.021 73.644)">
	<g>
		<path fill="#FFFFFF" d="M-487.541-56.87c-2.172-3.26-4.722-6.24-7.61-8.89c-2.63-2.51-5.649-4.56-8.95-6.09
			c-2.82-1.31-5.92-1.92-9.02-1.76c-3.69,0.31-7.24,1.57-10.3,3.64c-4.67,3.09-8.73,7.01-11.98,11.56
			c-0.56,0.77-1.07,1.58-1.62,2.39c0.25,0.43,0.41,0.771,0.61,1.07c2.19,3.289,4.79,6.3,7.71,8.959
			c2.58,2.431,5.53,4.431,8.74,5.931c2.82,1.319,5.92,1.94,9.02,1.79c3.65-0.29,7.16-1.51,10.2-3.54
			c5.3-3.479,9.819-8.01,13.278-13.319c0.172-0.271,0.312-0.561,0.432-0.86C-487.21-56.32-487.361-56.61-487.541-56.87z"/>
		<path fill="#FFFFFF" d="M-494.201-52.14c-2.57,2.931-5.562,5.46-8.891,7.49c-5.979,3.521-11.951,3.5-17.911-0.07
			c-3.89-2.42-7.34-5.489-10.2-9.08c-0.55-0.659-1.05-1.358-1.65-2.13c0.56-0.74,1.07-1.44,1.61-2.1c3.18-4.07,7.15-7.45,11.68-9.92
			c2.94-1.58,6.3-2.21,9.62-1.79c2.45,0.38,4.8,1.24,6.899,2.55c3.939,2.44,7.42,5.54,10.301,9.17c0.459,0.56,0.898,1.15,1.35,1.73
			c0.08,0.15,0.16,0.31,0.23,0.47C-492.181-54.581-493.151-53.32-494.201-52.14z"/>
	</g>
</g>
</svg>
