<?xml version="1.0" encoding="utf-8"?>
<!-- Generator: Adobe Illustrator 16.0.0, SVG Export Plug-In . SVG Version: 6.00 Build 0)  -->
<!DOCTYPE svg PUBLIC "-//W3C//DTD SVG 1.1//EN" "http://www.w3.org/Graphics/SVG/1.1/DTD/svg11.dtd">
<svg version="1.1" id="Layer_1" xmlns="http://www.w3.org/2000/svg" xmlns:xlink="http://www.w3.org/1999/xlink" x="0px" y="0px"
	 width="50px" height="35.408px" viewBox="0 0 50 35.408" enable-background="new 0 0 50 35.408" xml:space="preserve">
<path fill="#0F0F0F" d="M0,0.004v35.391h49.99V0.004H0z M16.02,28.924c-3.9-2.42-7.35-5.489-10.2-9.08
	c-0.55-0.659-1.05-1.359-1.65-2.13c0.56-0.74,1.06-1.44,1.61-2.1c3.17-4.07,7.15-7.45,11.68-9.92c2.94-1.59,6.3-2.21,9.61-1.79
	c2.449,0.37,4.8,1.24,6.91,2.55c3.939,2.44,7.42,5.54,10.289,9.17c0.471,0.56,0.91,1.15,1.36,1.73c0.08,0.15,0.16,0.31,0.23,0.47
	c-1.021,1.24-1.99,2.5-3.04,3.68c-2.57,2.931-5.561,5.46-8.891,7.49C27.95,32.514,21.98,32.494,16.02,28.924z"/>
<g transform="translate(537.021 73.644)">
	<path fill="#FFFFFF" d="M-487.541-56.87c-2.171-3.26-4.721-6.24-7.61-8.89c-2.63-2.51-5.65-4.57-8.95-6.09
		c-2.53-1.17-5.28-1.79-8.05-1.79c-0.32,0-0.65,0.01-0.97,0.03c-3.69,0.32-7.24,1.57-10.3,3.64c-4.67,3.09-8.73,7.01-11.98,11.56
		c-0.56,0.77-1.07,1.58-1.62,2.39c0.25,0.43,0.41,0.771,0.61,1.061c2.19,3.3,4.79,6.31,7.71,8.97c2.58,2.43,5.53,4.43,8.74,5.93
		c2.56,1.2,5.34,1.811,8.15,1.811c0.29,0,0.58-0.011,0.87-0.021c3.65-0.29,7.16-1.51,10.2-3.54c5.3-3.479,9.819-8.01,13.279-13.32
		c0.171-0.27,0.311-0.56,0.431-0.859C-487.211-56.32-487.361-56.61-487.541-56.87z M-494.201-52.14
		c-2.57,2.931-5.561,5.46-8.891,7.49c-5.979,3.52-11.95,3.5-17.91-0.07c-3.9-2.42-7.35-5.489-10.2-9.08
		c-0.55-0.659-1.05-1.359-1.65-2.13c0.56-0.74,1.06-1.44,1.61-2.1c3.17-4.07,7.15-7.45,11.68-9.92c2.94-1.59,6.3-2.21,9.61-1.79
		c2.449,0.37,4.8,1.24,6.91,2.55c3.939,2.44,7.42,5.54,10.289,9.17c0.471,0.56,0.91,1.15,1.36,1.73c0.08,0.15,0.16,0.31,0.23,0.47
		C-492.181-54.58-493.151-53.32-494.201-52.14z"/>
</g>
</svg>
