<?xml version="1.0" encoding="utf-8"?>
<!-- Generator: Adobe Illustrator 16.0.0, SVG Export Plug-In . SVG Version: 6.00 Build 0)  -->
<!DOCTYPE svg PUBLIC "-//W3C//DTD SVG 1.1//EN" "http://www.w3.org/Graphics/SVG/1.1/DTD/svg11.dtd">
<svg version="1.1" id="Layer_1" xmlns="http://www.w3.org/2000/svg" xmlns:xlink="http://www.w3.org/1999/xlink" x="0px" y="0px"
	 width="50px" height="35.408px" viewBox="0 0 50 35.408" enable-background="new 0 0 50 35.408" xml:space="preserve">
<g transform="translate(537.021 73.644)">
	<path fill="#FFFFFF" d="M-537.023-56.015c0.55-0.811,1.062-1.624,1.627-2.391c3.246-4.558,7.305-8.478,11.973-11.563
		c3.066-2.073,6.612-3.326,10.3-3.64c3.107-0.156,6.206,0.448,9.025,1.76c3.298,1.524,6.321,3.583,8.949,6.092
		c2.886,2.646,5.44,5.63,7.612,8.888c0.177,0.264,0.322,0.553,0.51,0.877c-0.124,0.298-0.268,0.588-0.43,0.867
		c-3.467,5.305-7.986,9.838-13.281,13.315c-3.043,2.03-6.555,3.248-10.2,3.539c-3.107,0.146-6.204-0.47-9.019-1.793
		c-3.213-1.493-6.165-3.496-8.74-5.929c-2.928-2.661-5.52-5.672-7.717-8.963C-536.613-55.252-536.776-55.585-537.023-56.015z
		 M-491.166-55.815c-0.064-0.165-0.142-0.325-0.229-0.48c-0.447-0.579-0.889-1.165-1.354-1.727
		c-2.875-3.629-6.357-6.73-10.295-9.165c-2.104-1.311-4.455-2.178-6.904-2.55c-3.314-0.421-6.676,0.202-9.618,1.784
		c-4.528,2.477-8.501,5.854-11.676,9.923c-0.544,0.66-1.048,1.359-1.613,2.1c0.6,0.77,1.107,1.467,1.653,2.129
		c2.855,3.588,6.306,6.659,10.2,9.08c5.958,3.569,11.928,3.594,17.914,0.073c3.323-2.03,6.319-4.558,8.883-7.492
		c1.054-1.176,2.023-2.444,3.041-3.678L-491.166-55.815z"/>
</g>
</svg>
