<svg xmlns="http://www.w3.org/2000/svg" width="50" height="35.408" viewBox="0 0 50 35.408"><g transform="translate(-537.021 -73.644)"><g transform="translate(537.021 73.644)"><path d="M519.6,366.938c.55-.811,1.062-1.624,1.627-2.391A45.486,45.486,0,0,1,533.2,352.984a21.664,21.664,0,0,1,10.3-3.64,19.119,19.119,0,0,1,9.025,1.76,33.016,33.016,0,0,1,8.949,6.092,48.737,48.737,0,0,1,7.613,8.888c.176.264.322.553.509.877a7.186,7.186,0,0,1-.43.867,46.109,46.109,0,0,1-13.281,13.316,21.449,21.449,0,0,1-10.2,3.539,19.083,19.083,0,0,1-9.019-1.793,32.944,32.944,0,0,1-8.74-5.929A48.573,48.573,0,0,1,520.209,368C520.01,367.7,519.847,367.368,519.6,366.938Zm45.858.2a4.006,4.006,0,0,0-.228-.48c-.448-.579-.889-1.165-1.353-1.727a39.916,39.916,0,0,0-10.295-9.165,18.242,18.242,0,0,0-6.905-2.55A16.043,16.043,0,0,0,537.059,355a37.852,37.852,0,0,0-11.676,9.923c-.544.66-1.048,1.359-1.613,2.1.6.769,1.107,1.467,1.653,2.129a40.1,40.1,0,0,0,10.2,9.08q8.937,5.354,17.912.073a38.272,38.272,0,0,0,8.883-7.492C563.472,369.637,564.443,368.368,565.46,367.135Z" transform="translate(-519.602 -349.309)"/><path d="M625.364,382.307a8.913,8.913,0,0,1-8.892,9.02,8.968,8.968,0,1,1-.1-17.936A8.93,8.93,0,0,1,625.364,382.307Z" transform="translate(-587.626 -359.392)"/></g></g></svg>