<?xml version="1.0" encoding="utf-8"?>
<!-- Generator: Adobe Illustrator 16.0.0, SVG Export Plug-In . SVG Version: 6.00 Build 0)  -->
<!DOCTYPE svg PUBLIC "-//W3C//DTD SVG 1.1//EN" "http://www.w3.org/Graphics/SVG/1.1/DTD/svg11.dtd">
<svg version="1.1" id="Layer_1" xmlns="http://www.w3.org/2000/svg" xmlns:xlink="http://www.w3.org/1999/xlink" x="0px" y="0px"
	 width="18px" height="18px" viewBox="0 0 18 18" enable-background="new 0 0 18 18" xml:space="preserve">
<g>
	<g>
		<circle fill="#0F0F0F" cx="9" cy="9" r="8.526"/>
		<path fill="#FFFFFF" d="M9,18c-4.962,0-9-4.037-9-9c0-4.962,4.038-9,9-9c4.963,0,9,4.038,9,9C18,13.963,13.963,18,9,18z M9,0.947
			C4.56,0.947,0.947,4.56,0.947,9c0,4.439,3.612,8.053,8.053,8.053c4.439,0,8.053-3.613,8.053-8.053
			C17.053,4.56,13.439,0.947,9,0.947z"/>
	</g>
	<g>
		<circle fill="#0F0F0F" cx="9" cy="9" r="8.053"/>
		<path fill="#FFFFFF" d="M9,17.526c-4.701,0-8.526-3.824-8.526-8.526c0-4.701,3.825-8.526,8.526-8.526
			c4.702,0,8.526,3.825,8.526,8.526C17.526,13.702,13.702,17.526,9,17.526z M9,1.421c-4.179,0-7.579,3.4-7.579,7.579
			c0,4.179,3.4,7.579,7.579,7.579c4.179,0,7.579-3.4,7.579-7.579C16.579,4.821,13.179,1.421,9,1.421z"/>
	</g>
</g>
</svg>
