<?xml version="1.0" encoding="utf-8"?>
<!-- Generator: Adobe Illustrator 16.0.0, SVG Export Plug-In . SVG Version: 6.00 Build 0)  -->
<!DOCTYPE svg PUBLIC "-//W3C//DTD SVG 1.1//EN" "http://www.w3.org/Graphics/SVG/1.1/DTD/svg11.dtd">
<svg version="1.1" id="Layer_1" xmlns="http://www.w3.org/2000/svg" xmlns:xlink="http://www.w3.org/1999/xlink" x="0px" y="0px"
	 width="50px" height="35.408px" viewBox="0 0 50 35.408" enable-background="new 0 0 50 35.408" xml:space="preserve">
<g>
	<path fill="#0F0F0F" d="M36.286,31.841c-3.043,2.03-6.555,3.248-10.2,3.539c-3.107,0.146-6.204-0.47-9.019-1.793
		c-3.213-1.493-6.165-3.496-8.74-5.929c-2.928-2.661-5.52-5.672-7.717-8.963c-0.198-0.296-0.361-0.627-0.607-1.056V35.4h49.994
		V17.659c-0.124,0.299-0.268,0.588-0.43,0.866C46.101,23.831,41.581,28.363,36.286,31.841z"/>
	<path fill="#0F0F0F" d="M0.003,0.007v17.627c0.549-0.811,1.061-1.622,1.625-2.389c3.246-4.558,7.305-8.478,11.973-11.563
		c3.066-2.072,6.612-3.325,10.3-3.64c3.107-0.156,6.206,0.448,9.025,1.76c3.298,1.524,6.321,3.583,8.949,6.093
		c2.886,2.646,5.44,5.63,7.612,8.888c0.177,0.265,0.322,0.554,0.51,0.877V0.007H0.003z"/>
</g>
<path fill="#FFFFFF" d="M49.488,16.776c-2.172-3.258-4.727-6.241-7.612-8.888c-2.628-2.51-5.651-4.568-8.949-6.092
	c-2.819-1.312-5.918-1.916-9.025-1.76c-3.688,0.313-7.234,1.566-10.3,3.639C8.934,6.762,4.875,10.682,1.629,15.239
	c-0.565,0.767-1.077,1.58-1.627,2.392c0.247,0.43,0.41,0.761,0.609,1.058c2.197,3.291,4.789,6.303,7.717,8.963
	c2.575,2.434,5.527,4.436,8.74,5.93c2.815,1.322,5.912,1.938,9.019,1.793c3.646-0.291,7.157-1.51,10.2-3.539
	c5.295-3.479,9.814-8.01,13.281-13.316c0.162-0.277,0.306-0.567,0.43-0.864C49.811,17.33,49.665,17.041,49.488,16.776z
	 M42.82,21.505c-2.564,2.934-5.561,5.461-8.883,7.492c-5.986,3.52-11.957,3.496-17.915-0.074c-3.894-2.42-7.345-5.492-10.2-9.08
	c-0.546-0.662-1.053-1.359-1.653-2.128c0.565-0.74,1.069-1.439,1.613-2.1c3.175-4.068,7.148-7.445,11.676-9.923
	c2.942-1.582,6.304-2.205,9.618-1.784c2.448,0.372,4.8,1.239,6.903,2.551c3.938,2.435,7.42,5.535,10.295,9.164
	c0.465,0.562,0.908,1.148,1.354,1.728c0.087,0.155,0.165,0.315,0.229,0.479l0.002-0.002C44.843,19.06,43.874,20.329,42.82,21.505z"
	/>
</svg>
